<svg xmlns="http://www.w3.org/2000/svg" viewBox="0 0 601.37 155.28"><defs><style>.cls-1{fill:#003dd9;}.cls-2{fill:#f1f1f1;}</style></defs><title>Ativo 33</title><g id="Camada_2" data-name="Camada 2"><g id="Camada_2-2" data-name="Camada 2"><polygon class="cls-1" points="77.32 96.64 0 38.66 0 154.63 77.32 96.64"/><polygon class="cls-1" points="77.43 96.64 154.74 154.63 154.74 38.66 77.43 96.64"/><path class="cls-1" d="M77.32,38.66h77.31a38.66,38.66,0,1,0-77.31,0Z"/><path class="cls-1" d="M0,38.66H77.32A38.66,38.66,0,0,0,0,38.66Z"/><path class="cls-2" d="M268.6,22.72q5.49,5.45,5.49,16.35V67.59H262.45v-27q0-6.52-2.89-9.84c-1.93-2.2-4.69-3.3-8.3-3.3a12.17,12.17,0,0,0-9.41,3.86q-3.54,3.87-3.54,11.05V67.59H226.66v-27q0-6.52-2.89-9.84c-1.92-2.2-4.69-3.3-8.29-3.3A12.17,12.17,0,0,0,206,31.25q-3.5,3.81-3.49,11.09V67.59H190.88V17.83H202v6.33A18.1,18.1,0,0,1,209,19a23.71,23.71,0,0,1,9.32-1.77,22.63,22.63,0,0,1,9.92,2.09,16.16,16.16,0,0,1,6.85,6.2,20.72,20.72,0,0,1,7.92-6.1,25.72,25.72,0,0,1,10.72-2.19Q263.09,17.27,268.6,22.72Z"/><path class="cls-2" d="M324.84,22.53q5.82,5.26,5.82,15.89V67.59h-11V61.53a13.53,13.53,0,0,1-6.1,5A23.83,23.83,0,0,1,304,68.24a23.49,23.49,0,0,1-9.79-1.91A15.07,15.07,0,0,1,287.75,61a13.43,13.43,0,0,1-2.29-7.69,13.16,13.16,0,0,1,5-10.76q5-4.05,15.7-4H319v-.75q0-5.22-3.12-8T306.62,27a26.74,26.74,0,0,0-8.25,1.3,20.5,20.5,0,0,0-6.85,3.64L287,23.42a28.32,28.32,0,0,1,9.42-4.57A42,42,0,0,1,308,17.27Q319,17.27,324.84,22.53ZM314.21,57.76A10.92,10.92,0,0,0,319,52V46.25H307q-10.07,0-10.06,6.62a5.92,5.92,0,0,0,2.51,5,11.56,11.56,0,0,0,7,1.86A15.1,15.1,0,0,0,314.21,57.76Z"/><path class="cls-2" d="M355,65a23.9,23.9,0,0,1-9.6-9.09,25.34,25.34,0,0,1-3.45-13.18,25.12,25.12,0,0,1,3.45-13.14,24.18,24.18,0,0,1,9.55-9,29.18,29.18,0,0,1,13.94-3.26,26.79,26.79,0,0,1,12.9,3,19.35,19.35,0,0,1,8.34,8.57L381.17,34a14.23,14.23,0,0,0-5.36-5.17A15.66,15.66,0,0,0,358,31.39q-4.29,4.23-4.28,11.32T357.92,54a15.72,15.72,0,0,0,17.89,2.52,14.26,14.26,0,0,0,5.36-5.18l8.94,5.22a20.1,20.1,0,0,1-8.43,8.62,26.31,26.31,0,0,1-12.81,3A29.12,29.12,0,0,1,355,65Z"/><path class="cls-2" d="M436,22.53q5.82,5.26,5.82,15.89V67.59h-11V61.53a13.53,13.53,0,0,1-6.1,5,23.83,23.83,0,0,1-9.55,1.72,23.49,23.49,0,0,1-9.79-1.91A15.07,15.07,0,0,1,398.92,61a13.43,13.43,0,0,1-2.29-7.69,13.19,13.19,0,0,1,5-10.76q5-4.05,15.7-4h12.86v-.75q0-5.22-3.12-8T417.79,27a26.74,26.74,0,0,0-8.25,1.3,20.59,20.59,0,0,0-6.85,3.64l-4.56-8.48a28.27,28.27,0,0,1,9.41-4.57,42.09,42.09,0,0,1,11.65-1.58Q430.18,17.27,436,22.53ZM425.38,57.76a10.92,10.92,0,0,0,4.8-5.73V46.25h-12q-10.07,0-10.06,6.62a6,6,0,0,0,2.51,5,11.56,11.56,0,0,0,7,1.86A15.1,15.1,0,0,0,425.38,57.76Z"/><path class="cls-2" d="M533.43,17.83,515.08,67.59H503.89L491,33.3,478,67.59H466.81L448.54,17.83h11l13.14,36.71,13.69-36.71h9.79l13.42,36.9,13.51-36.9Z"/><path class="cls-2" d="M231.46,107.48a22.76,22.76,0,0,1,9,9,26.56,26.56,0,0,1,3.27,13.32,26.83,26.83,0,0,1-3.27,13.37,22.76,22.76,0,0,1-9,9,26.42,26.42,0,0,1-13,3.16,24,24,0,0,1-9.36-1.77A17.87,17.87,0,0,1,202,148.2v6.43H190.88V85.49h11.65v25.44a19.45,19.45,0,0,1,7-4.94,23,23,0,0,1,8.9-1.68A26.43,26.43,0,0,1,231.46,107.48ZM227.73,141q4.16-4.29,4.15-11.28t-4.15-11.28a14.09,14.09,0,0,0-10.57-4.28,15,15,0,0,0-7.55,1.91,13.73,13.73,0,0,0-5.31,5.45,18.13,18.13,0,0,0,0,16.4,13.73,13.73,0,0,0,5.31,5.45,14.92,14.92,0,0,0,7.55,1.91A14.05,14.05,0,0,0,227.73,141Z"/><path class="cls-2" d="M303,104.87v49.76H291.89V148.3a18.53,18.53,0,0,1-7,5.17,22.49,22.49,0,0,1-9,1.81q-10,0-15.7-5.54t-5.73-16.45V104.87h11.65v26.84q0,6.71,3,10t8.62,3.3q6.24,0,9.92-3.86T291.33,130V104.87Z"/><path class="cls-2" d="M321.81,153.7a29.48,29.48,0,0,1-9.23-4l4.47-8.85a28.9,28.9,0,0,0,8.06,3.59,33.55,33.55,0,0,0,9.28,1.35q10.42,0,10.43-5.5a3.66,3.66,0,0,0-2.65-3.63,45.09,45.09,0,0,0-8.53-2,68.85,68.85,0,0,1-10-2.14,15.41,15.41,0,0,1-6.71-4.24q-2.84-3-2.84-8.44A13.25,13.25,0,0,1,320,108.55q5.91-4.24,16-4.24a46.5,46.5,0,0,1,10.25,1.16,28.73,28.73,0,0,1,8.39,3.13l-4.47,8.85a27.66,27.66,0,0,0-14.26-3.73q-5.13,0-7.78,1.54a4.6,4.6,0,0,0-2.66,4,4,4,0,0,0,2.84,4,44.75,44.75,0,0,0,8.81,2.19,68.6,68.6,0,0,1,9.78,2.15,15.27,15.27,0,0,1,6.57,4.1c1.84,1.92,2.75,4.66,2.75,8.2a13,13,0,0,1-6.05,11.18q-6.06,4.2-16.5,4.19A44.34,44.34,0,0,1,321.81,153.7Z"/><path class="cls-2" d="M366.82,94.67a6.87,6.87,0,0,1,0-10,7.51,7.51,0,0,1,5.31-2,7.71,7.71,0,0,1,5.31,1.91,6.17,6.17,0,0,1,2.14,4.8,7.05,7.05,0,0,1-2.09,5.17,7.26,7.26,0,0,1-5.36,2.1A7.51,7.51,0,0,1,366.82,94.67Zm-.56,10.2h11.65v49.76H366.26Z"/><path class="cls-2" d="M436.52,109.81q5.69,5.5,5.68,16.31v28.51H430.56v-27q0-6.52-3.08-9.83t-8.76-3.31q-6.44,0-10.16,3.87c-2.48,2.57-3.72,6.29-3.72,11.13v25.16H393.19V104.87h11.09v6.43a18.09,18.09,0,0,1,7.27-5.22,26.11,26.11,0,0,1,9.87-1.77Q430.84,104.31,436.52,109.81Z"/><path class="cls-2" d="M504.08,133.48H465a13.56,13.56,0,0,0,5.36,8.71,17.54,17.54,0,0,0,10.77,3.22A18.12,18.12,0,0,0,494.67,140l6.24,7.18a21,21,0,0,1-8.48,6,33.61,33.61,0,0,1-26-1.21,23.42,23.42,0,0,1-9.64-9.08,25.64,25.64,0,0,1-3.4-13.19,26.09,26.09,0,0,1,3.3-13.09,23.59,23.59,0,0,1,9.18-9.09,26.86,26.86,0,0,1,13.23-3.26,26,26,0,0,1,13,3.22,22.63,22.63,0,0,1,8.95,9A27.43,27.43,0,0,1,504.27,130C504.27,130.84,504.2,132,504.08,133.48Zm-34.43-16.54a13.9,13.9,0,0,0-4.71,8.8h28.24a13.75,13.75,0,0,0-4.57-8.76,15.16,15.16,0,0,0-19,0Z"/><path class="cls-2" d="M519,153.7a29.58,29.58,0,0,1-9.23-4l4.48-8.85a28.64,28.64,0,0,0,8.06,3.59,33.48,33.48,0,0,0,9.27,1.35q10.44,0,10.44-5.5a3.67,3.67,0,0,0-2.66-3.63,45.09,45.09,0,0,0-8.53-2,68.38,68.38,0,0,1-10-2.14,15.35,15.35,0,0,1-6.71-4.24c-1.9-2-2.84-4.83-2.84-8.44a13.26,13.26,0,0,1,5.91-11.32q5.93-4.24,16-4.24a46.43,46.43,0,0,1,10.25,1.16,28.62,28.62,0,0,1,8.39,3.13l-4.47,8.85a27.66,27.66,0,0,0-14.26-3.73q-5.13,0-7.78,1.54a4.6,4.6,0,0,0-2.66,4,4,4,0,0,0,2.85,4,44.61,44.61,0,0,0,8.8,2.19,68.78,68.78,0,0,1,9.79,2.15,15.38,15.38,0,0,1,6.57,4.1c1.83,1.92,2.75,4.66,2.75,8.2a13,13,0,0,1-6.06,11.18q-6.06,4.2-16.5,4.19A44.39,44.39,0,0,1,519,153.7Z"/><path class="cls-2" d="M567,153.7a29.58,29.58,0,0,1-9.23-4l4.48-8.85a28.64,28.64,0,0,0,8.06,3.59,33.54,33.54,0,0,0,9.27,1.35q10.44,0,10.44-5.5a3.67,3.67,0,0,0-2.66-3.63,45.09,45.09,0,0,0-8.53-2,68.67,68.67,0,0,1-10-2.14,15.35,15.35,0,0,1-6.71-4.24c-1.9-2-2.84-4.83-2.84-8.44a13.26,13.26,0,0,1,5.91-11.32q5.93-4.24,16-4.24a46.57,46.57,0,0,1,10.25,1.16,28.65,28.65,0,0,1,8.38,3.13l-4.47,8.85a27.66,27.66,0,0,0-14.26-3.73q-5.13,0-7.78,1.54a4.6,4.6,0,0,0-2.66,4,4,4,0,0,0,2.85,4,44.61,44.61,0,0,0,8.8,2.19,68.78,68.78,0,0,1,9.79,2.15,15.38,15.38,0,0,1,6.57,4.1c1.83,1.92,2.75,4.66,2.75,8.2a13,13,0,0,1-6.06,11.18q-6.06,4.2-16.5,4.19A44.39,44.39,0,0,1,567,153.7Z"/></g></g></svg>