<svg xmlns="http://www.w3.org/2000/svg" viewBox="0 0 529.37 178.82"><defs><style>.cls-1{fill:#003dd9;}.cls-2{fill:#f1f1f1;}</style></defs><title>Ativo 34</title><g id="Camada_2" data-name="Camada 2"><g id="Camada_2-2" data-name="Camada 2"><polygon class="cls-1" points="86.12 107.65 0 43.06 0 172.24 86.12 107.65"/><polygon class="cls-1" points="86.25 107.65 172.37 172.24 172.37 43.06 86.25 107.65"/><path class="cls-1" d="M86.12,43.06h86.12a43.06,43.06,0,0,0-86.12,0Z"/><path class="cls-1" d="M0,43.06H86.12A43.06,43.06,0,0,0,0,43.06Z"/><path class="cls-2" d="M272.59,24.1q4.25,4.2,4.24,12.62v22h-9V37.87q0-5-2.23-7.59a8,8,0,0,0-6.4-2.55,9.36,9.36,0,0,0-7.26,3q-2.73,3-2.73,8.52V58.72h-9V37.87q0-5-2.23-7.59a8.05,8.05,0,0,0-6.4-2.55,9.39,9.39,0,0,0-7.3,2.95c-1.8,2-2.69,4.81-2.69,8.55V58.72h-9V20.32h8.55v4.89a14,14,0,0,1,5.4-3.95,18.28,18.28,0,0,1,7.19-1.37,17.38,17.38,0,0,1,7.66,1.62,12.39,12.39,0,0,1,5.28,4.78,16.07,16.07,0,0,1,6.11-4.71,20,20,0,0,1,8.27-1.69Q268.34,19.89,272.59,24.1Z"/><path class="cls-2" d="M316,24q4.5,4.07,4.5,12.26V58.72H312V54.05a10.36,10.36,0,0,1-4.71,3.84,18.35,18.35,0,0,1-7.37,1.33,18.13,18.13,0,0,1-7.55-1.47,11.73,11.73,0,0,1-5-4.1,10.42,10.42,0,0,1-1.76-5.93,10.17,10.17,0,0,1,3.85-8.31q3.84-3.12,12.12-3.12h9.92v-.58a7.86,7.86,0,0,0-2.41-6.18q-2.41-2.16-7.15-2.16a20.74,20.74,0,0,0-6.37,1,15.62,15.62,0,0,0-5.28,2.8l-3.53-6.54A21.9,21.9,0,0,1,294,21.11a32.42,32.42,0,0,1,9-1.22Q311.49,19.89,316,24Zm-8.19,27.18a8.39,8.39,0,0,0,3.7-4.42V42.25h-9.28q-7.75,0-7.76,5.11a4.59,4.59,0,0,0,1.94,3.88,8.88,8.88,0,0,0,5.39,1.44A11.52,11.52,0,0,0,307.79,51.13Z"/><path class="cls-2" d="M339.25,56.71a18.48,18.48,0,0,1-7.41-7,19.55,19.55,0,0,1-2.66-10.18,19.36,19.36,0,0,1,2.66-10.14,18.61,18.61,0,0,1,7.37-7A22.42,22.42,0,0,1,350,19.89a20.75,20.75,0,0,1,10,2.3,14.91,14.91,0,0,1,6.43,6.62l-6.9,4a11,11,0,0,0-4.13-4,12.05,12.05,0,0,0-13.77,1.95,11.71,11.71,0,0,0-3.31,8.73,11.81,11.81,0,0,0,3.27,8.74,12.13,12.13,0,0,0,13.81,1.94,11,11,0,0,0,4.13-4l6.9,4a15.56,15.56,0,0,1-6.5,6.65A20.3,20.3,0,0,1,350,59.22,22.45,22.45,0,0,1,339.25,56.71Z"/><path class="cls-2" d="M401.77,24q4.49,4.07,4.49,12.26V58.72h-8.48V54.05a10.47,10.47,0,0,1-4.71,3.84,18.38,18.38,0,0,1-7.37,1.33,18.06,18.06,0,0,1-7.55-1.47,11.61,11.61,0,0,1-5-4.1,10.34,10.34,0,0,1-1.76-5.93,10.19,10.19,0,0,1,3.84-8.31q3.86-3.12,12.12-3.12h9.92v-.58a7.89,7.89,0,0,0-2.4-6.18q-2.42-2.16-7.16-2.16a20.63,20.63,0,0,0-6.36,1,15.58,15.58,0,0,0-5.29,2.8l-3.52-6.54a21.75,21.75,0,0,1,7.26-3.53,32.54,32.54,0,0,1,9-1.22Q397.27,19.89,401.77,24Zm-8.2,27.18a8.39,8.39,0,0,0,3.7-4.42V42.25H388q-7.77,0-7.77,5.11a4.59,4.59,0,0,0,1.94,3.88,8.93,8.93,0,0,0,5.4,1.44A11.51,11.51,0,0,0,393.57,51.13Z"/><path class="cls-2" d="M477,20.32l-14.17,38.4h-8.63l-9.92-26.46L434.16,58.72h-8.63l-14.09-38.4h8.48l10.14,28.33,10.57-28.33h7.56L458.54,48.8,469,20.32Z"/><path class="cls-2" d="M243.93,94.21a17.6,17.6,0,0,1,6.94,6.91,20.53,20.53,0,0,1,2.52,10.28,20.76,20.76,0,0,1-2.52,10.32,17.61,17.61,0,0,1-6.94,6.94,20.35,20.35,0,0,1-10,2.44,18.57,18.57,0,0,1-7.22-1.36,13.91,13.91,0,0,1-5.51-4.1v5h-8.55V77.24h9V96.87A15.25,15.25,0,0,1,227,93.06a17.88,17.88,0,0,1,6.87-1.29A20.35,20.35,0,0,1,243.93,94.21Zm-2.87,25.89a13.43,13.43,0,0,0,0-17.4,10.87,10.87,0,0,0-8.16-3.31,11.61,11.61,0,0,0-5.83,1.47,10.79,10.79,0,0,0-4.1,4.21,14,14,0,0,0,0,12.66,10.69,10.69,0,0,0,4.1,4.2,11.51,11.51,0,0,0,5.83,1.48A10.87,10.87,0,0,0,241.06,120.1Z"/><path class="cls-2" d="M299.12,92.2v38.4h-8.56v-4.89a14.22,14.22,0,0,1-5.39,4,17.43,17.43,0,0,1-7,1.4q-7.69,0-12.12-4.28t-4.42-12.69V92.2h9v20.71c0,3.45.77,6,2.33,7.73a8.58,8.58,0,0,0,6.65,2.55,10.06,10.06,0,0,0,7.66-3c1.9-2,2.84-4.86,2.84-8.59V92.2Z"/><path class="cls-2" d="M313.65,129.88a22.9,22.9,0,0,1-7.12-3.09L310,120a22.42,22.42,0,0,0,6.22,2.77,26,26,0,0,0,7.15,1q8.06,0,8.06-4.25a2.84,2.84,0,0,0-2.05-2.8,35.3,35.3,0,0,0-6.58-1.51,53.79,53.79,0,0,1-7.73-1.65,12,12,0,0,1-5.18-3.27,9.16,9.16,0,0,1-2.19-6.51A10.23,10.23,0,0,1,312.24,95q4.58-3.27,12.34-3.27a35.61,35.61,0,0,1,7.91.9A22.19,22.19,0,0,1,339,95.08l-3.45,6.83a21.29,21.29,0,0,0-11-2.88,12.21,12.21,0,0,0-6,1.19,3.53,3.53,0,0,0-2.05,3.13,3.12,3.12,0,0,0,2.19,3.05,35.17,35.17,0,0,0,6.8,1.69,51.59,51.59,0,0,1,7.55,1.66,11.81,11.81,0,0,1,5.07,3.16,8.85,8.85,0,0,1,2.12,6.33,10,10,0,0,1-4.67,8.63q-4.68,3.23-12.73,3.23A34.53,34.53,0,0,1,313.65,129.88Z"/><path class="cls-2" d="M348.38,84.33a5.29,5.29,0,0,1,0-7.7,5.77,5.77,0,0,1,4.1-1.54,6,6,0,0,1,4.1,1.47,4.75,4.75,0,0,1,1.65,3.7,5.39,5.39,0,0,1-1.62,4,5.58,5.58,0,0,1-4.13,1.62A5.77,5.77,0,0,1,348.38,84.33ZM348,92.2h9v38.4h-9Z"/><path class="cls-2" d="M402.16,96q4.39,4.24,4.39,12.58v22h-9V109.75q0-5-2.37-7.59a8.78,8.78,0,0,0-6.76-2.55,10.38,10.38,0,0,0-7.84,3c-1.92,2-2.87,4.85-2.87,8.59V130.6h-9V92.2h8.55v5a14.24,14.24,0,0,1,5.61-4,20.25,20.25,0,0,1,7.62-1.36Q397.79,91.77,402.16,96Z"/><path class="cls-2" d="M454.3,114.27H424.17A10.43,10.43,0,0,0,428.3,121a13.59,13.59,0,0,0,8.31,2.48A14,14,0,0,0,447,119.31l4.82,5.54a16.19,16.19,0,0,1-6.54,4.67,26,26,0,0,1-20.06-.93,18.11,18.11,0,0,1-7.45-7,19.75,19.75,0,0,1-2.62-10.17,20.08,20.08,0,0,1,2.55-10.1,18,18,0,0,1,7.08-7A20.66,20.66,0,0,1,435,91.77a20.22,20.22,0,0,1,10,2.48,17.59,17.59,0,0,1,6.9,7,21.21,21.21,0,0,1,2.48,10.4C454.44,112.24,454.39,113.12,454.3,114.27Zm-26.57-12.76a10.73,10.73,0,0,0-3.63,6.8h21.78a10.59,10.59,0,0,0-3.52-6.76A10.71,10.71,0,0,0,435,99,10.84,10.84,0,0,0,427.73,101.51Z"/><path class="cls-2" d="M465.8,129.88a23.11,23.11,0,0,1-7.12-3.09l3.45-6.83a22.42,22.42,0,0,0,6.22,2.77,26.05,26.05,0,0,0,7.16,1q8.06,0,8.05-4.25a2.83,2.83,0,0,0-2.05-2.8,35.1,35.1,0,0,0-6.58-1.51,54.1,54.1,0,0,1-7.73-1.65,12,12,0,0,1-5.17-3.27,9.12,9.12,0,0,1-2.2-6.51A10.22,10.22,0,0,1,464.4,95q4.56-3.27,12.33-3.27a35.55,35.55,0,0,1,7.91.9,22.08,22.08,0,0,1,6.47,2.41l-3.45,6.83a21.27,21.27,0,0,0-11-2.88,12.16,12.16,0,0,0-6,1.19,3.53,3.53,0,0,0-2.05,3.13,3.12,3.12,0,0,0,2.19,3.05,35,35,0,0,0,6.79,1.69,51.29,51.29,0,0,1,7.55,1.66,11.69,11.69,0,0,1,5.07,3.16,8.81,8.81,0,0,1,2.13,6.33,10,10,0,0,1-4.68,8.63q-4.68,3.23-12.73,3.23A34.58,34.58,0,0,1,465.8,129.88Z"/><path class="cls-2" d="M502.83,129.88a23.11,23.11,0,0,1-7.12-3.09l3.46-6.83a22.15,22.15,0,0,0,6.22,2.77,26,26,0,0,0,7.15,1q8.06,0,8.05-4.25a2.83,2.83,0,0,0-2.05-2.8,35,35,0,0,0-6.57-1.51,53.49,53.49,0,0,1-7.73-1.65,12,12,0,0,1-5.18-3.27,9.11,9.11,0,0,1-2.19-6.51A10.23,10.23,0,0,1,501.43,95c3-2.18,7.16-3.27,12.33-3.27a35.48,35.48,0,0,1,7.91.9,22,22,0,0,1,6.47,2.41l-3.45,6.83a21.27,21.27,0,0,0-11-2.88,12.16,12.16,0,0,0-6,1.19,3.53,3.53,0,0,0-2.05,3.13,3.12,3.12,0,0,0,2.19,3.05,35,35,0,0,0,6.8,1.69,51.89,51.89,0,0,1,7.55,1.66,11.81,11.81,0,0,1,5.07,3.16,8.85,8.85,0,0,1,2.12,6.33,10,10,0,0,1-4.68,8.63c-3.11,2.15-7.36,3.23-12.72,3.23A34.6,34.6,0,0,1,502.83,129.88Z"/><path class="cls-2" d="M229.66,170.72a14.5,14.5,0,0,1-5.94,1.06c-6.33,0-11.1-4-11.1-11.37,0-7,4.77-11.8,11.74-11.8a12,12,0,0,1,5.33,1L229,152a10.46,10.46,0,0,0-4.53-.94c-5.27,0-8.77,3.37-8.77,9.27,0,5.51,3.16,9,8.63,9a11.76,11.76,0,0,0,4.74-.93Z"/><path class="cls-2" d="M233.19,147.78h2.94v23.67h-2.94Z"/><path class="cls-2" d="M250,171.45l-.24-2h-.09a6.06,6.06,0,0,1-4.94,2.4,4.6,4.6,0,0,1-4.94-4.64c0-3.9,3.47-6,9.71-6v-.33c0-1.34-.37-3.74-3.67-3.74a8.06,8.06,0,0,0-4.2,1.2l-.67-1.93a10,10,0,0,1,5.3-1.44c4.94,0,6.14,3.37,6.14,6.61v6a22.73,22.73,0,0,0,.27,3.87Zm-.43-8.24c-3.21-.06-6.84.5-6.84,3.64a2.6,2.6,0,0,0,2.77,2.8,4,4,0,0,0,3.9-2.7,3,3,0,0,0,.17-.93Z"/><path class="cls-2" d="M257.14,160.35c0-1.9,0-3.54-.14-5h2.57l.1,3.17h.13a4.85,4.85,0,0,1,4.47-3.54,3.43,3.43,0,0,1,.83.1v2.77a4.82,4.82,0,0,0-1-.1c-2.06,0-3.53,1.57-3.93,3.77a8,8,0,0,0-.13,1.37v8.6h-2.9Z"/><path class="cls-2" d="M271.44,150.78a1.82,1.82,0,0,1-3.63,0,1.78,1.78,0,0,1,1.83-1.84A1.74,1.74,0,0,1,271.44,150.78Zm-3.27,20.67V155.31h2.94v16.14Z"/><path class="cls-2" d="M279.51,150.68v4.63h4.2v2.24h-4.2v8.7c0,2,.57,3.13,2.2,3.13a6.53,6.53,0,0,0,1.7-.2l.14,2.2a7.08,7.08,0,0,1-2.61.4,4.06,4.06,0,0,1-3.16-1.23c-.84-.87-1.14-2.3-1.14-4.2v-8.8h-2.5v-2.24h2.5v-3.87Z"/><path class="cls-2" d="M288.38,155.31l3.53,9.54c.37,1.07.77,2.33,1,3.3H293c.3-1,.64-2.2,1-3.37l3.2-9.47h3.1L296,166.82c-2.1,5.53-3.54,8.37-5.54,10.1a7.83,7.83,0,0,1-3.6,1.9l-.73-2.47a7.82,7.82,0,0,0,2.57-1.43,8.8,8.8,0,0,0,2.46-3.27,2,2,0,0,0,.24-.7,2.68,2.68,0,0,0-.2-.77l-6-14.87Z"/><path class="cls-2" d="M313.36,150.78a1.82,1.82,0,0,1-3.64,0,1.79,1.79,0,0,1,1.84-1.84A1.74,1.74,0,0,1,313.36,150.78Zm-3.27,20.67V155.31H313v16.14Z"/><path class="cls-2" d="M317.89,159.68c0-1.67,0-3-.13-4.37h2.6l.17,2.67h.06a6,6,0,0,1,5.34-3c2.23,0,5.7,1.34,5.7,6.87v9.64H328.7v-9.3c0-2.6-1-4.77-3.74-4.77a4.17,4.17,0,0,0-3.93,3,4.08,4.08,0,0,0-.2,1.37v9.7h-2.94Z"/><path class="cls-2" d="M359.27,170.72a14.44,14.44,0,0,1-5.93,1.06c-6.34,0-11.1-4-11.1-11.37,0-7,4.76-11.8,11.73-11.8a12.09,12.09,0,0,1,5.34,1l-.7,2.37a10.48,10.48,0,0,0-4.54-.94c-5.27,0-8.77,3.37-8.77,9.27,0,5.51,3.17,9,8.64,9a11.67,11.67,0,0,0,4.73-.93Z"/><path class="cls-2" d="M362.81,147.78h2.93v10.07h.07a5.43,5.43,0,0,1,2.1-2.07,6.05,6.05,0,0,1,3-.84c2.17,0,5.64,1.34,5.64,6.91v9.6h-2.94v-9.27c0-2.6-1-4.8-3.73-4.8a4.23,4.23,0,0,0-3.94,2.93,3.7,3.7,0,0,0-.2,1.4v9.74h-2.93Z"/><path class="cls-2" d="M390.25,171.45l-.23-2h-.1a6,6,0,0,1-4.94,2.4,4.6,4.6,0,0,1-4.93-4.64c0-3.9,3.47-6,9.7-6v-.33c0-1.34-.36-3.74-3.67-3.74a8.09,8.09,0,0,0-4.2,1.2l-.66-1.93a10,10,0,0,1,5.3-1.44c4.93,0,6.13,3.37,6.13,6.61v6a22.73,22.73,0,0,0,.27,3.87Zm-.43-8.24c-3.2-.06-6.84.5-6.84,3.64a2.6,2.6,0,0,0,2.77,2.8,4,4,0,0,0,3.9-2.7,3,3,0,0,0,.17-.93Z"/><path class="cls-2" d="M412,163.25c0,6-4.13,8.57-8,8.57-4.37,0-7.74-3.2-7.74-8.31,0-5.4,3.54-8.57,8-8.57C408.86,154.94,412,158.31,412,163.25Zm-12.8.17c0,3.53,2,6.2,4.9,6.2s4.9-2.64,4.9-6.27c0-2.74-1.36-6.2-4.83-6.2S399.19,160.35,399.19,163.42Z"/><path class="cls-2" d="M415.3,168.45a7.63,7.63,0,0,0,3.86,1.17c2.14,0,3.14-1.07,3.14-2.4s-.83-2.17-3-3c-2.9-1-4.27-2.64-4.27-4.57,0-2.6,2.1-4.74,5.57-4.74a8,8,0,0,1,4,1l-.74,2.13a6.27,6.27,0,0,0-3.3-.93c-1.73,0-2.7,1-2.7,2.2s1,1.93,3.07,2.73c2.8,1.07,4.23,2.47,4.23,4.87,0,2.83-2.2,4.83-6,4.83a9.2,9.2,0,0,1-4.54-1.1Z"/></g></g></svg>