<svg xmlns="http://www.w3.org/2000/svg" viewBox="0 0 575.66 193.55"><defs><style>.cls-1{fill:#f1f1f1;}</style></defs><title>Ativo 32</title><g id="Camada_2" data-name="Camada 2"><g id="Camada_2-2" data-name="Camada 2"><path class="cls-1" d="M109,7.64q7.71,7.65,7.71,22.94v40H100.36V32.67q0-9.15-4-13.79T84.68,14.24q-8.24,0-13.2,5.43t-5,15.48V70.57H50.18V32.67q0-9.15-4-13.79T34.5,14.24q-8.37,0-13.26,5.36t-4.9,15.55V70.57H0V.78H15.55V9.67a25.39,25.39,0,0,1,9.8-7.19A33.38,33.38,0,0,1,38.42,0,31.57,31.57,0,0,1,52.34,2.94a22.59,22.59,0,0,1,9.6,8.69A29.15,29.15,0,0,1,73.05,3.07,36,36,0,0,1,88.08,0Q101.28,0,109,7.64Z"/><path class="cls-1" d="M187.86,7.38Q196,14.78,196,29.66V70.57H180.6v-8.5a18.88,18.88,0,0,1-8.56,7,33.45,33.45,0,0,1-13.39,2.41,32.74,32.74,0,0,1-13.72-2.68,21.15,21.15,0,0,1-9.09-7.45,18.9,18.9,0,0,1-3.2-10.78,18.48,18.48,0,0,1,7-15.09q7-5.68,22-5.68h18V28.75q0-7.32-4.38-11.24t-13-3.92a37.56,37.56,0,0,0-11.57,1.83,28.32,28.32,0,0,0-9.6,5.1l-6.41-11.9a39.79,39.79,0,0,1,13.2-6.4A58.8,58.8,0,0,1,164.27,0Q179.69,0,187.86,7.38ZM173,56.78a15.28,15.28,0,0,0,6.73-8v-8.1H162.83q-14.12,0-14.11,9.28A8.33,8.33,0,0,0,152.25,57q3.52,2.61,9.8,2.61A21,21,0,0,0,173,56.78Z"/><path class="cls-1" d="M230.13,66.91a33.6,33.6,0,0,1-13.46-12.74,35.65,35.65,0,0,1-4.84-18.49,35.29,35.29,0,0,1,4.84-18.43,33.83,33.83,0,0,1,13.4-12.68A40.75,40.75,0,0,1,249.6,0a37.61,37.61,0,0,1,18.1,4.18,27.18,27.18,0,0,1,11.7,12l-12.55,7.32a19.93,19.93,0,0,0-7.51-7.25,21.92,21.92,0,0,0-25,3.53q-6,5.94-6,15.88t5.95,15.87q5.94,6,15.22,6a20.49,20.49,0,0,0,9.87-2.42,19.93,19.93,0,0,0,7.51-7.25l12.55,7.32a28.28,28.28,0,0,1-11.83,12.09,36.88,36.88,0,0,1-18,4.24A40.9,40.9,0,0,1,230.13,66.91Z"/><path class="cls-1" d="M343.76,7.38q8.16,7.4,8.17,22.28V70.57H336.51v-8.5a19,19,0,0,1-8.56,7,33.54,33.54,0,0,1-13.4,2.41,32.74,32.74,0,0,1-13.72-2.68,21.06,21.06,0,0,1-9.08-7.45,18.83,18.83,0,0,1-3.2-10.78,18.48,18.48,0,0,1,7-15.09q7-5.68,22-5.68h18V28.75q0-7.32-4.38-11.24t-13-3.92a37.56,37.56,0,0,0-11.57,1.83,28.32,28.32,0,0,0-9.6,5.1l-6.4-11.9a39.74,39.74,0,0,1,13.19-6.4A58.8,58.8,0,0,1,320.17,0Q335.59,0,343.76,7.38Zm-14.9,49.4a15.28,15.28,0,0,0,6.73-8v-8.1H318.73q-14.12,0-14.11,9.28A8.35,8.35,0,0,0,308.15,57q3.53,2.61,9.8,2.61A21,21,0,0,0,328.86,56.78Z"/><path class="cls-1" d="M480.39.78,454.64,70.57H439l-18-48.09-18.3,48.09H387L361.34.78h15.42l18.42,51.49L414.39.78h13.73l18.81,51.75L465.88.78Z"/><path class="cls-1" d="M56.91,126.51a32,32,0,0,1,12.61,12.54,40.55,40.55,0,0,1,0,37.44A31.87,31.87,0,0,1,56.91,189.1a37,37,0,0,1-18.23,4.45,33.83,33.83,0,0,1-13.13-2.48,25.29,25.29,0,0,1-10-7.45v9H0v-97H16.34v35.67a27.21,27.21,0,0,1,9.86-6.92,32.3,32.3,0,0,1,12.48-2.35A37.06,37.06,0,0,1,56.91,126.51Zm-5.22,47q5.81-6,5.81-15.81t-5.81-15.81a19.76,19.76,0,0,0-14.84-6,20.93,20.93,0,0,0-10.58,2.68,19.29,19.29,0,0,0-7.45,7.64,25.42,25.42,0,0,0,0,23,19.39,19.39,0,0,0,7.45,7.65,21,21,0,0,0,10.58,2.68A19.77,19.77,0,0,0,51.69,173.55Z"/><path class="cls-1" d="M157.21,122.85v69.78H141.66v-8.88a26,26,0,0,1-9.8,7.25,31.53,31.53,0,0,1-12.68,2.55q-14,0-22-7.78t-8-23.06V122.85h16.34v37.63q0,9.42,4.25,14.05t12.09,4.64q8.74,0,13.91-5.42t5.17-15.62V122.85Z"/><path class="cls-1" d="M183.61,191.33a41.85,41.85,0,0,1-12.94-5.62l6.27-12.42a40.34,40.34,0,0,0,11.31,5,46.7,46.7,0,0,0,13,1.9q14.64,0,14.64-7.71,0-3.66-3.73-5.1a64.1,64.1,0,0,0-12-2.74,95.78,95.78,0,0,1-14-3,21.48,21.48,0,0,1-9.41-5.94q-4-4.25-4-11.83a18.61,18.61,0,0,1,8.3-15.88q8.3-5.94,22.41-5.94a64.73,64.73,0,0,1,14.38,1.63,40.33,40.33,0,0,1,11.76,4.38l-6.27,12.41a38.76,38.76,0,0,0-20-5.23q-7.18,0-10.91,2.16c-2.48,1.44-3.72,3.33-3.72,5.69,0,2.61,1.32,4.46,4,5.55A63.38,63.38,0,0,0,205,151.73a95.5,95.5,0,0,1,13.72,3,21.57,21.57,0,0,1,9.22,5.74q3.86,4.07,3.85,11.51,0,9.8-8.49,15.68t-23.14,5.88A62.48,62.48,0,0,1,183.61,191.33Z"/><path class="cls-1" d="M246.73,108.54a9.62,9.62,0,0,1,0-14,10.46,10.46,0,0,1,7.45-2.81,10.79,10.79,0,0,1,7.45,2.68,8.63,8.63,0,0,1,3,6.72,9.86,9.86,0,0,1-2.94,7.26,10.17,10.17,0,0,1-7.51,2.94A10.51,10.51,0,0,1,246.73,108.54ZM246,122.85h16.33v69.78H246Z"/><path class="cls-1" d="M344.48,129.77q8,7.72,8,22.87v40H336.12V154.74q0-9.15-4.32-13.79t-12.28-4.64q-9,0-14.25,5.42t-5.22,15.62v35.28H283.71V122.85h15.55v9a25.41,25.41,0,0,1,10.2-7.32,36.56,36.56,0,0,1,13.85-2.48Q336.5,122.07,344.48,129.77Z"/><path class="cls-1" d="M439.22,163H384.47A19,19,0,0,0,392,175.19q6.07,4.5,15.09,4.51,11.51,0,18.95-7.58l8.76,10.06a29.42,29.42,0,0,1-11.89,8.49A47.11,47.11,0,0,1,386.43,189a32.93,32.93,0,0,1-13.53-12.75,36,36,0,0,1-4.77-18.49,36.57,36.57,0,0,1,4.64-18.36,32.91,32.91,0,0,1,12.87-12.74,37.57,37.57,0,0,1,18.56-4.57,36.66,36.66,0,0,1,18.23,4.5A31.94,31.94,0,0,1,435,139.25a38.37,38.37,0,0,1,4.51,18.88C439.48,159.27,439.4,160.88,439.22,163Zm-48.28-23.2a19.5,19.5,0,0,0-6.6,12.35h39.59a19.26,19.26,0,0,0-6.4-12.28,19.47,19.47,0,0,0-13.33-4.71A19.69,19.69,0,0,0,390.94,139.77Z"/><path class="cls-1" d="M460.13,191.33a42,42,0,0,1-12.94-5.62l6.28-12.42a40.15,40.15,0,0,0,11.3,5,46.7,46.7,0,0,0,13,1.9q14.64,0,14.64-7.71a5.15,5.15,0,0,0-3.72-5.1,64.3,64.3,0,0,0-12-2.74,95.66,95.66,0,0,1-14.05-3,21.53,21.53,0,0,1-9.41-5.94q-4-4.25-4-11.83A18.6,18.6,0,0,1,457.58,128q8.31-5.94,22.42-5.94a64.57,64.57,0,0,1,14.37,1.63,40.33,40.33,0,0,1,11.76,4.38l-6.27,12.41a38.76,38.76,0,0,0-20-5.23q-7.19,0-10.91,2.16c-2.48,1.44-3.72,3.33-3.72,5.69,0,2.61,1.32,4.46,4,5.55a63.58,63.58,0,0,0,12.35,3.07,95.67,95.67,0,0,1,13.73,3,21.53,21.53,0,0,1,9.21,5.74q3.86,4.07,3.85,11.51,0,9.8-8.49,15.68t-23.13,5.88A62.5,62.5,0,0,1,460.13,191.33Z"/><path class="cls-1" d="M527.43,191.33a42,42,0,0,1-12.94-5.62l6.28-12.42a40.15,40.15,0,0,0,11.3,5,46.75,46.75,0,0,0,13,1.9q14.64,0,14.64-7.71a5.15,5.15,0,0,0-3.72-5.1,64.3,64.3,0,0,0-12-2.74,95.66,95.66,0,0,1-14-3,21.53,21.53,0,0,1-9.41-5.94q-4-4.25-4-11.83A18.6,18.6,0,0,1,524.88,128q8.31-5.94,22.42-5.94a64.57,64.57,0,0,1,14.37,1.63,40.33,40.33,0,0,1,11.76,4.38l-6.27,12.41a38.76,38.76,0,0,0-20-5.23q-7.18,0-10.91,2.16c-2.48,1.44-3.72,3.33-3.72,5.69q0,3.91,4,5.55a63.58,63.58,0,0,0,12.35,3.07,95.67,95.67,0,0,1,13.73,3,21.53,21.53,0,0,1,9.21,5.74q3.86,4.07,3.86,11.51,0,9.8-8.5,15.68T544,193.55A62.5,62.5,0,0,1,527.43,191.33Z"/></g></g></svg>